<svg width="137" height="24" viewBox="0 0 137 24" fill="none" xmlns="http://www.w3.org/2000/svg">
<path d="M36.4094 17.1445C37.2106 17.5245 37.8255 18.0542 38.062 18.8973C38.5461 20.6195 38.062 22.3639 35.7222 22.974C34.9253 23.1713 34.1088 23.2792 33.2879 23.2957C30.8897 23.3761 28.4916 23.4011 26.0934 23.3511C25.8931 23.3511 25.6955 23.3262 25.498 23.304C24.5549 23.1958 24.1459 22.7799 24.107 21.8314C24.0569 20.2728 23.9846 18.7142 23.8733 17.1584C23.723 15.0951 23.5478 13.0345 23.3864 10.974C23.2751 9.5291 23.1666 8.08422 23.0748 6.63934C23.0728 6.32967 23.0998 6.02049 23.1555 5.71583C23.1867 5.46091 23.2913 5.22046 23.4567 5.02358C23.6221 4.8267 23.8412 4.68184 24.0875 4.60652C24.8333 4.32713 25.6177 4.16345 26.4133 4.1212C28.2133 3.98253 30.0134 3.9132 31.7939 4.30978C34.2394 4.85057 36.3148 5.97375 37.5055 8.26726C38.0747 9.31787 38.4087 10.4789 38.4846 11.6706C38.5605 12.8622 38.3764 14.056 37.9451 15.17C37.618 15.9523 37.0879 16.6338 36.4094 17.1445ZM30.8925 15.4806V16.2571C30.8925 16.956 30.8925 16.956 31.588 16.8117C32.0157 16.7436 32.3989 16.5091 32.6534 16.1597C32.9079 15.8103 33.013 15.3746 32.9457 14.9481C32.8038 13.9053 32.2474 13.4172 31.2764 13.4588C31.0622 13.4588 30.9732 13.5282 30.9676 13.7556C30.9593 14.3213 30.9231 14.901 30.8925 15.4806ZM30.8591 19.5129H30.8285C30.8285 19.7903 30.8285 20.0842 30.8285 20.3671C30.8285 20.5335 30.8702 20.6139 31.0539 20.6167C31.4672 20.6397 31.8758 20.5202 32.2112 20.2783C32.3459 20.1876 32.4536 20.0626 32.5234 19.9162C32.5931 19.7699 32.6223 19.6076 32.6078 19.4463C32.5933 19.2849 32.5357 19.1304 32.441 18.9987C32.3463 18.867 32.218 18.7631 32.0693 18.6976C31.7472 18.5676 31.4062 18.4898 31.0594 18.4674C30.9009 18.4424 30.8619 18.5312 30.8619 18.6615C30.8619 18.9444 30.8591 19.23 30.8591 19.5129Z" fill="#F77833"/>
<path d="M98.5948 17.1195C97.3469 18.6311 96.1867 20.2126 95.12 21.8563C95.0703 21.9276 95.0248 22.0017 94.9837 22.0782C94.8187 22.4427 94.5485 22.7501 94.2076 22.961C93.8668 23.1719 93.4706 23.2768 93.0696 23.2624C91.8149 23.3151 90.5583 23.2984 89.3054 23.2124C88.8464 23.1681 88.749 23.0488 88.6711 22.594C88.5442 21.574 88.4921 20.546 88.5153 19.5184C88.5153 16.5603 88.5227 13.6104 88.5376 10.6689C88.5376 9.00491 88.571 7.34094 88.5877 5.69084C88.5877 5.61596 88.5877 5.54108 88.5877 5.4662C88.6127 4.81448 88.6989 4.70632 89.3527 4.69246C90.3821 4.67027 91.4143 4.67582 92.4464 4.69246C92.9778 4.69246 93.0724 4.79507 93.0696 5.33863C93.0696 6.50341 93.0362 7.66542 93.0223 8.83019C93.0223 9.50688 93.0223 10.1863 93.0223 10.8991C93.5175 10.1309 93.9877 9.38208 94.4801 8.64993C95.3159 7.40196 96.2639 6.23236 97.3123 5.15559C97.4747 4.9855 97.6709 4.85103 97.8884 4.76078C98.1059 4.67053 98.3399 4.62648 98.5754 4.63144C99.7311 4.60967 100.887 4.64762 102.039 4.74515C102.657 4.79784 102.807 4.95037 102.807 5.55495C102.807 8.36891 102.797 11.1819 102.776 13.9941C102.76 16.6453 102.726 19.2966 102.704 21.9478C102.704 23.0239 102.565 23.1875 101.508 23.2319C100.737 23.2712 99.9654 23.2647 99.1958 23.2124C98.5726 23.1653 98.3612 22.9684 98.389 22.3444C98.4446 20.6999 98.5225 19.0553 98.5921 17.4107C98.5948 17.3442 98.5948 17.2859 98.5948 17.1195Z" fill="#F77833"/>
<path d="M49.1236 4.7452C50.7622 4.7452 52.0309 4.7452 53.2967 4.7452C53.6222 4.7452 53.8253 4.84504 53.8281 5.20556C53.8658 7.53451 53.64 9.86028 53.1549 12.1388C53.1549 12.1887 53.1382 12.2386 53.1242 12.2858C52.9045 13.1177 52.8961 13.0928 52.0337 13.0401C51.0293 12.9791 50.0222 12.9735 49.0151 12.9375C48.8231 12.9375 48.7369 12.9652 48.723 13.1926C48.6479 14.3019 48.6423 14.3019 49.7468 14.277C50.6398 14.2437 51.5301 14.166 52.4259 14.1355C53.0797 14.1134 53.3301 14.4295 53.1994 15.0701C53.0936 15.5663 52.9598 16.0561 52.7987 16.5372C52.7452 16.7286 52.6356 16.8997 52.4839 17.0287C52.3323 17.1576 52.1455 17.2385 51.9474 17.261C50.9877 17.3991 50.0163 17.4391 49.0485 17.3803C48.6729 17.3803 48.5783 17.4746 48.5672 17.8434C48.5394 18.8889 48.5199 18.8751 49.591 18.9056C50.5369 18.9333 51.4772 18.8085 52.4232 18.8168C52.8182 18.8168 52.9796 18.9583 52.9796 19.3382C53.0037 20.2918 52.9665 21.2459 52.8683 22.1947C52.8638 22.3482 52.8058 22.4952 52.7042 22.6106C52.6027 22.7261 52.4639 22.8026 52.3119 22.827C51.4638 23.0203 50.5972 23.1216 49.7273 23.1293C48.0998 23.2042 46.4695 23.1875 44.8419 23.1681C44.1208 23.1941 43.3991 23.1364 42.6914 22.9962C42.1127 22.8547 41.9402 22.6773 41.8568 22.106C41.6147 20.4891 41.4979 18.8584 41.3755 17.2278C41.1473 14.2021 40.9776 11.1737 40.8357 8.14525C40.8051 7.51294 40.7801 6.8834 40.755 6.25109C40.7356 5.71585 40.8357 5.55223 41.3449 5.35255C42.1092 5.09139 42.9078 4.94285 43.7152 4.9116C45.6404 4.73965 47.5684 4.73411 49.1236 4.7452Z" fill="#F77833"/>
<path d="M55.5363 13.6751C55.5363 9.14076 58.3323 5.47171 62.6362 4.4345C64.5336 3.97413 66.456 4.06011 68.3729 4.38181C69.0907 4.50106 69.4579 4.88932 69.5943 5.6076C69.8548 7.07309 69.9989 8.55677 70.0255 10.0449C70.045 10.6383 70.07 11.2318 70.0756 11.8253C70.0811 12.4188 69.8669 12.6018 69.2632 12.477C68.4011 12.2823 67.5118 12.2363 66.6341 12.3411C64.8174 12.5852 63.6378 14.0661 63.7546 15.9714C63.8687 17.8295 65.2486 19.18 67.0459 19.2078C67.5931 19.2295 68.1397 19.1524 68.6595 18.9804C68.7568 18.9372 68.8635 18.9191 68.9697 18.9277C69.0759 18.9363 69.1783 18.9713 69.2674 19.0295C69.3565 19.0877 69.4296 19.1673 69.4799 19.261C69.5302 19.3546 69.5561 19.4593 69.5553 19.5655C69.5854 20.3203 69.5529 21.0763 69.4579 21.8258C69.419 22.1641 69.1463 22.3194 68.882 22.4608C68.159 22.8264 67.3703 23.0451 66.5618 23.1042C64.1692 23.3427 61.8712 23.021 59.7595 21.8119C57.3669 20.4419 56.1233 18.3009 55.6893 15.6413C55.5796 14.9918 55.5284 14.3337 55.5363 13.6751Z" fill="#F77833"/>
<path d="M136.665 10.9129C136.665 11.2235 136.665 11.5341 136.665 11.842C136.665 12.4244 136.451 12.6046 135.875 12.4743C135.293 12.3428 134.699 12.2758 134.103 12.2746C132.87 12.2746 131.735 12.5519 130.998 13.6363C130.603 14.1847 130.372 14.8338 130.333 15.508C130.293 16.1821 130.447 16.8535 130.775 17.444C131.393 18.6698 132.464 19.2023 133.836 19.2023C134.321 19.2081 134.803 19.1321 135.263 18.9776C135.365 18.9329 135.477 18.9156 135.588 18.9276C135.699 18.9395 135.804 18.9802 135.894 19.0456C135.984 19.111 136.056 19.1988 136.101 19.3002C136.147 19.4017 136.165 19.5133 136.153 19.6238C136.17 20.3422 136.142 21.0609 136.07 21.7759C136.047 21.9171 135.987 22.05 135.898 22.1617C135.808 22.2735 135.691 22.3603 135.558 22.4137C134.81 22.8127 133.984 23.0472 133.137 23.1015C130.77 23.3372 128.494 23.0128 126.402 21.8313C124.098 20.5279 122.819 18.5034 122.346 15.9381C121.964 13.9303 122.017 11.9252 122.799 10.0227C124.19 6.69475 126.694 4.75346 130.28 4.24595C131.824 4.03976 133.39 4.08095 134.921 4.36797C135.708 4.50941 136.086 4.92263 136.217 5.70192C136.399 6.73838 136.517 7.78493 136.57 8.83573C136.604 9.52628 136.57 10.2224 136.57 10.9129H136.665Z" fill="#F77833"/>
<path d="M9.97622 16.6257C9.87004 18.6465 9.87004 20.6715 9.97622 22.6924C10.013 23.3883 9.97622 23.4784 9.26976 23.5807C8.88445 23.638 8.49546 23.6667 8.10594 23.6667C6.40172 23.6667 4.70158 23.6667 3.00553 23.6667C2.71559 23.6667 2.42566 23.6667 2.13572 23.6421C1.58852 23.6421 1.43743 23.5111 1.29042 22.9708C1.12947 22.2818 1.03916 21.5781 1.0209 20.8707C0.803107 17.4321 0.598927 13.9948 0.40836 10.5589C0.224598 7.34547 0 4.13608 0 0.914415C0 0.398621 0.0571705 0.316749 0.583954 0.226689C1.83173 0.0595999 3.09042 -0.0115637 4.34903 0.0138219C5.90079 -0.0107397 7.45256 0.0138219 9.00024 0.0138219C9.51478 0.0138219 9.55561 0.0465712 9.53928 0.57874C9.46986 2.62554 9.53928 4.67234 9.6332 6.71914C9.67812 7.82032 9.75979 8.9215 9.91089 10.0391C10.3192 9.02384 10.7766 7.99226 11.1931 6.98932C12.0711 4.8279 12.8919 2.64601 13.5739 0.414995C13.5798 0.352678 13.5984 0.292236 13.6285 0.237396C13.6586 0.182555 13.6996 0.134478 13.749 0.0961253C13.7983 0.0577727 13.855 0.0299579 13.9155 0.014395C13.976 -0.00116794 14.039 -0.00414944 14.1007 0.0056345C16.3921 0.0422182 18.6779 0.24332 20.9407 0.607395C21.7982 0.762952 21.8309 0.848917 21.5614 1.67173C20.4425 5.09808 18.956 8.3443 16.7305 11.2016C16.5502 11.3771 16.4386 11.6116 16.4161 11.8625C16.3936 12.1134 16.4617 12.364 16.608 12.5689C19.1153 15.8438 21.0999 18.2304 22.1984 21.8041C22.3536 22.3117 22.2801 22.4713 21.7901 22.6637C20.9159 22.9617 20.0048 23.1367 19.0826 23.1836C17.6044 23.3351 16.122 23.3883 14.6356 23.4047C14.5073 23.4247 14.3763 23.3928 14.2714 23.3161C14.1665 23.2393 14.0963 23.1239 14.0762 22.9953C13.3983 21.0754 12.357 19.2497 10.2784 16.9081C10.2294 16.7812 10.0334 16.7321 9.97622 16.6257Z" fill="#F77833"/>
<path d="M112.638 17.4465C112.554 19.0404 112.554 20.6376 112.638 22.2315C112.667 22.7804 112.638 22.8514 112.079 22.9321C111.774 22.9773 111.466 22.9999 111.158 22.9999C109.809 22.9999 108.464 22.9999 107.122 22.9999C106.892 22.9999 106.663 22.9999 106.433 22.9805C106 22.9805 105.881 22.8772 105.764 22.451C105.637 21.9076 105.566 21.3526 105.551 20.7947C105.379 18.0825 105.217 15.3714 105.066 12.6614C104.921 10.1269 104.743 7.59551 104.743 5.05448C104.743 4.64766 104.789 4.58308 105.205 4.51205C106.193 4.38026 107.189 4.32413 108.185 4.34415C109.413 4.32478 110.641 4.34415 111.865 4.34415C112.272 4.34415 112.305 4.36998 112.292 4.78972C112.237 6.4041 112.292 8.01848 112.366 9.63286C112.402 10.5014 112.466 11.3699 112.586 12.2514C112.909 11.4507 113.271 10.637 113.601 9.84596C114.295 8.14117 114.945 6.42024 115.484 4.66057C115.489 4.61142 115.504 4.56375 115.528 4.52049C115.551 4.47724 115.584 4.43932 115.623 4.40907C115.662 4.37882 115.707 4.35688 115.755 4.34461C115.803 4.33233 115.852 4.32998 115.901 4.3377C117.714 4.36655 119.523 4.52517 121.314 4.81232C121.992 4.93502 122.018 5.00282 121.805 5.6518C120.92 8.35427 119.743 10.9147 117.982 13.1683C117.84 13.3067 117.751 13.4917 117.734 13.6896C117.716 13.8875 117.77 14.0852 117.885 14.2468C119.869 16.8298 121.44 18.7121 122.309 21.5308C122.432 21.9312 122.374 22.0571 121.986 22.2089C121.294 22.4439 120.573 22.5819 119.844 22.6189C118.674 22.7384 117.501 22.7804 116.325 22.7933C116.223 22.8091 116.119 22.7839 116.036 22.7234C115.953 22.6628 115.898 22.5718 115.882 22.4704C115.345 20.9561 114.521 19.5161 112.877 17.6692C112.838 17.5691 112.683 17.5304 112.638 17.4465Z" fill="#F77833"/>
<path d="M77.5455 4.37337C80.1328 4.34933 82.7174 4.4048 85.2992 4.53977C86.4927 4.60355 86.54 4.63129 86.5762 5.83489C86.6457 8.01469 86.6346 10.1945 86.5205 12.3743C86.4955 12.8291 86.3564 12.965 85.8973 12.9678C85.0404 12.9678 84.1808 12.9678 83.3239 12.9678C83.0652 12.9678 82.9984 13.0399 82.9817 13.2978C82.8092 16.3484 82.5282 19.3713 82.1805 22.3997C82.1656 22.5608 82.0965 22.712 81.9843 22.8289C81.8721 22.9457 81.7236 23.0212 81.5628 23.0431C81.1745 23.1334 80.7763 23.1744 80.3777 23.1651C79.2648 23.1651 78.152 23.1651 77.0391 23.0625C76.5495 23.0209 76.3993 22.8989 76.3659 22.408C76.2657 20.8883 76.1823 19.3574 76.071 17.8488C75.9597 16.2791 75.8178 14.7122 75.7009 13.1342C75.6843 12.8735 75.5229 12.8735 75.3476 12.8568C74.5408 12.8568 73.7312 12.8374 72.9244 12.8319C72.2233 12.8319 72.1454 12.7487 72.1037 12.0526C71.9869 10.0115 71.998 7.96755 72.0564 5.92364C72.0564 5.60193 72.0926 5.28023 72.112 4.95853C72.1076 4.88453 72.1189 4.81043 72.1453 4.74112C72.1717 4.67181 72.2125 4.60887 72.2651 4.55645C72.3177 4.50403 72.3808 4.46333 72.4504 4.43703C72.5199 4.41073 72.5942 4.39943 72.6685 4.40388C74.2904 4.33177 75.918 4.39556 77.5455 4.37337Z" fill="#F77833"/>
</svg>
